# xmcd
#
# Track frame offsets:
#	150
#	18031
#	34107
#	56252
#	74438
#	89160
#	113118
#	136517
#	169754
#	188464
#	195968
#	210895
#	244610
#
# Disc length: 3530 seconds
#
# Revision: 2
# Processed by: cddbd v1.4PL0 Copyright (c) Steve Scherf et al.
# Submitted via: CDmax 1.8
#
DISCID=9a0dc80d
DTITLE=Sister Sonny - While others dance, Sister Sonny
DYEAR=2000
DGENRE=Alt. Country
TTITLE0=The man who covered himself
TTITLE1=Liquid
TTITLE2=A girl called Pola
TTITLE3=Lady Patrick
TTITLE4=Lars miles
TTITLE5=Seventeen
TTITLE6=Worry/Careless
TTITLE7=Be the dog
TTITLE8=23 skills
TTITLE9=Åka skidor
TTITLE10=Orange
TTITLE11=Triptych
TTITLE12=What's happening in dance (Ib Kleiser)
EXTD=
EXTT0=
EXTT1=
EXTT2=
EXTT3=
EXTT4=
EXTT5=
EXTT6=
EXTT7=
EXTT8=
EXTT9=
EXTT10=
EXTT11=
EXTT12=
PLAYORDER=
